<svg width="41" height="41" viewBox="0 0 41 41" fill="none" xmlns="http://www.w3.org/2000/svg">
<path d="M20.7188 10.25C19.4826 10.25 18.2742 10.6166 17.2464 11.3033C16.2186 11.9901 15.4176 12.9662 14.9445 14.1082C14.4715 15.2503 14.3477 16.5069 14.5888 17.7193C14.83 18.9317 15.4253 20.0453 16.2993 20.9194C17.1734 21.7935 18.2871 22.3888 19.4994 22.6299C20.7118 22.8711 21.9685 22.7473 23.1105 22.2742C24.2526 21.8012 25.2287 21.0001 25.9154 19.9723C26.6022 18.9445 26.9688 17.7361 26.9688 16.5C26.9688 14.8424 26.3103 13.2527 25.1382 12.0806C23.9661 10.9085 22.3764 10.25 20.7188 10.25ZM20.7188 20.25C19.9771 20.25 19.252 20.0301 18.6354 19.618C18.0187 19.206 17.538 18.6203 17.2542 17.9351C16.9704 17.2498 16.8961 16.4958 17.0408 15.7684C17.1855 15.041 17.5427 14.3728 18.0671 13.8483C18.5915 13.3239 19.2597 12.9667 19.9872 12.8221C20.7146 12.6774 21.4686 12.7516 22.1538 13.0355C22.839 13.3193 23.4247 13.7999 23.8368 14.4166C24.2488 15.0333 24.4688 15.7583 24.4688 16.5C24.4678 17.4943 24.0724 18.4475 23.3693 19.1506C22.6663 19.8536 21.713 20.249 20.7188 20.25Z" fill="#2A2A2A"/>
<path d="M20.7188 2.75C17.2576 2.75 13.8741 3.77636 10.9963 5.69928C8.11842 7.62221 5.8754 10.3553 4.55087 13.553C3.22633 16.7507 2.87977 20.2694 3.55502 23.6641C4.23026 27.0587 5.89697 30.1769 8.34439 32.6244C10.7918 35.0718 13.91 36.7385 17.3047 37.4137C20.6993 38.089 24.218 37.7424 27.4157 36.4179C30.6134 35.0934 33.3466 32.8503 35.2695 29.9725C37.1924 27.0946 38.2188 23.7112 38.2188 20.25C38.2135 15.6103 36.368 11.1622 33.0873 7.88148C29.8065 4.60074 25.3584 2.75529 20.7188 2.75ZM13.2188 33.2213V31.5C13.2198 30.5057 13.6152 29.5525 14.3182 28.8494C15.0213 28.1464 15.9745 27.751 16.9688 27.75H24.4688C25.463 27.751 26.4163 28.1464 27.1193 28.8494C27.8224 29.5525 28.2178 30.5057 28.2188 31.5V33.2213C25.9427 34.5503 23.3544 35.2506 20.7188 35.2506C18.0831 35.2506 15.4948 34.5503 13.2188 33.2213ZM30.7088 31.4075C30.6838 29.7679 30.0158 28.2037 28.8486 27.052C27.6815 25.9002 26.1085 25.2531 24.4688 25.25H16.9688C15.329 25.2531 13.7561 25.9002 12.5889 27.052C11.4217 28.2037 10.7537 29.7679 10.7288 31.4075C8.46196 29.3834 6.86342 26.7186 6.1448 23.7658C5.42618 20.8131 5.62138 17.7117 6.70456 14.8723C7.78773 12.033 9.70778 9.58958 12.2105 7.86571C14.7132 6.14183 17.6804 5.21878 20.7194 5.21878C23.7583 5.21878 26.7256 6.14183 29.2283 7.86571C31.731 9.58958 33.651 12.033 34.7342 14.8723C35.8174 17.7117 36.0126 20.8131 35.294 23.7658C34.5753 26.7186 32.9768 29.3834 30.71 31.4075H30.7088Z" fill="#2A2A2A"/>
</svg>
