<svg width="20" height="20" viewBox="0 0 20 20" fill="none" xmlns="http://www.w3.org/2000/svg">
<path d="M9.99479 10.0003C9.07812 10.0003 8.32812 9.25033 8.32812 8.33366C8.32812 7.41699 9.07812 6.66699 9.99479 6.66699C10.9115 6.66699 11.6615 7.41699 11.6615 8.33366C11.6615 9.25033 10.9115 10.0003 9.99479 10.0003ZM14.9948 8.50033C14.9948 5.47533 12.7865 3.33366 9.99479 3.33366C7.20312 3.33366 4.99479 5.47533 4.99479 8.50033C4.99479 10.4503 6.61979 13.0337 9.99479 16.117C13.3698 13.0337 14.9948 10.4503 14.9948 8.50033ZM9.99479 1.66699C13.4948 1.66699 16.6615 4.35033 16.6615 8.50033C16.6615 11.267 14.4365 14.542 9.99479 18.3337C5.55312 14.542 3.32812 11.267 3.32812 8.50033C3.32812 4.35033 6.49479 1.66699 9.99479 1.66699Z" fill="#2A2A2A"/>
</svg>
