<svg width="18" height="16" viewBox="0 0 18 16" fill="none" xmlns="http://www.w3.org/2000/svg">
<path d="M8.69219 3.89683C6.29043 3.89683 4.35317 5.72836 4.35317 7.99902C4.35317 10.2697 6.29043 12.1012 8.69219 12.1012C11.0939 12.1012 13.0312 10.2697 13.0312 7.99902C13.0312 5.72836 11.0939 3.89683 8.69219 3.89683ZM8.69219 10.666C7.14011 10.666 5.87126 9.46996 5.87126 7.99902C5.87126 6.52809 7.13633 5.33206 8.69219 5.33206C10.248 5.33206 11.5131 6.52809 11.5131 7.99902C11.5131 9.46996 10.2443 10.666 8.69219 10.666ZM14.2208 3.72902C14.2208 4.26099 13.7676 4.68585 13.2087 4.68585C12.646 4.68585 12.1966 4.25742 12.1966 3.72902C12.1966 3.20063 12.6498 2.7722 13.2087 2.7722C13.7676 2.7722 14.2208 3.20063 14.2208 3.72902ZM17.0946 4.70013C17.0304 3.41841 16.7207 2.28308 15.7275 1.34768C14.7381 0.412278 13.5372 0.119519 12.1815 0.0552546C10.7843 -0.0197203 6.59631 -0.0197203 5.19907 0.0552546C3.84713 0.115949 2.64626 0.408708 1.65308 1.34411C0.659898 2.27951 0.354014 3.41484 0.28604 4.69656C0.206737 6.01754 0.206737 9.97693 0.28604 11.2979C0.350238 12.5796 0.659898 13.715 1.65308 14.6504C2.64626 15.5858 3.84336 15.8785 5.19907 15.9428C6.59631 16.0178 10.7843 16.0178 12.1815 15.9428C13.5372 15.8821 14.7381 15.5893 15.7275 14.6504C16.7169 13.715 17.0266 12.5796 17.0946 11.2979C17.1739 9.97693 17.1739 6.02111 17.0946 4.70013ZM15.2895 12.7153C14.9949 13.4151 14.4247 13.9542 13.6807 14.2362C12.5667 14.6539 9.92328 14.5575 8.69219 14.5575C7.4611 14.5575 4.81388 14.6504 3.70363 14.2362C2.96347 13.9577 2.39324 13.4186 2.09491 12.7153C1.65308 11.6621 1.75504 9.16292 1.75504 7.99902C1.75504 6.83513 1.65685 4.33239 2.09491 3.28275C2.38947 2.58298 2.95969 2.04387 3.70363 1.76183C4.81766 1.34411 7.4611 1.44051 8.69219 1.44051C9.92328 1.44051 12.5705 1.34768 13.6807 1.76183C14.4209 2.0403 14.9911 2.57941 15.2895 3.28275C15.7313 4.33596 15.6293 6.83513 15.6293 7.99902C15.6293 9.16292 15.7313 11.6657 15.2895 12.7153Z" fill="#FAFAFA"/>
</svg>
