<svg width="21" height="14" viewBox="0 0 21 14" fill="none" xmlns="http://www.w3.org/2000/svg">
<path d="M20.0043 1.65631C19.2912 1.94209 18.5349 2.12967 17.7603 2.21282C18.5671 1.77542 19.1865 1.08277 19.4782 0.257495C18.7113 0.669183 17.8722 0.959243 16.9973 1.11514C16.2846 0.428284 15.2692 -0.000976562 14.1454 -0.000976562C11.9877 -0.000976562 10.2383 1.58148 10.2383 3.53324C10.2383 3.81029 10.2729 4.08 10.3395 4.33874C7.09247 4.1913 4.21364 2.78427 2.28661 0.645977C1.95038 1.16797 1.75771 1.77515 1.75771 2.42278C1.75771 3.64899 2.44751 4.73072 3.49579 5.36455C2.87536 5.34697 2.26857 5.19538 1.7261 4.92244C1.72587 4.93724 1.72587 4.95204 1.72587 4.96692C1.72587 6.67932 3.0726 8.10781 4.85985 8.4325C4.28452 8.57404 3.68104 8.59475 3.09551 8.49306C3.59265 9.89719 5.03556 10.919 6.74515 10.9476C5.40802 11.8955 3.72335 12.4605 1.89295 12.4605C1.57754 12.4605 1.2666 12.4438 0.960937 12.4111C2.68994 13.4139 4.74358 13.999 6.94994 13.999C14.1364 13.999 18.0661 8.61351 18.0661 3.94312C18.0661 3.78983 18.0624 3.63741 18.0548 3.48587C18.8197 2.98567 19.4798 2.36613 20.0043 1.65631Z" fill="#FAFAFA"/>
</svg>
